<svg xmlns="http://www.w3.org/2000/svg" width="22.675" height="22.623" viewBox="0 0 22.675 22.623"><defs><style>.a{fill:#4e4e4e;}</style></defs><path class="a" d="M-31.452,50.441a6.584,6.584,0,0,0-.615-2.314c-.1-.215-.325-.653-.325-.653s.092-.605.108-.938a10.258,10.258,0,0,0-3.327-8.317,10.326,10.326,0,0,0-7.182-2.787c-.065,0-.13,0-.2,0-.427,0-1.374.108-1.374.108s-.391-.222-.615-.325a6.063,6.063,0,0,0-2.242-.615c-.154-.014-.311-.022-.465-.022-.171,0-.342.007-.511.022A5.952,5.952,0,0,0-54.09,40.5a6.286,6.286,0,0,0,0,.976,5.546,5.546,0,0,0,.362,1.555c.147.419.579,1.338.579,1.338s-.106.984-.108,1.41a10.321,10.321,0,0,0,3.038,7.558,10.23,10.23,0,0,0,7.594,3.074c.446,0,1.446-.111,1.446-.111s.5.26.723.362a6.145,6.145,0,0,0,2.567.545,6.56,6.56,0,0,0,3.472-.976A6.1,6.1,0,0,0-31.452,50.441Zm-4.993,1.154a4.592,4.592,0,0,1-2.219,1.666,9.943,9.943,0,0,1-3.571.567,8.71,8.71,0,0,1-3.441-.615,5.009,5.009,0,0,1-2.116-1.536,3.094,3.094,0,0,1-.683-1.85,1.433,1.433,0,0,1,.437-1.051,1.5,1.5,0,0,1,1.106-.437,1.291,1.291,0,0,1,.9.287,3.139,3.139,0,0,1,.6.806,4.086,4.086,0,0,0,1.372,1.488,4.139,4.139,0,0,0,2.178.492,3.146,3.146,0,0,0,1.837-.5,1.4,1.4,0,0,0,.717-1.14,1.552,1.552,0,0,0-.744-1.434,9.209,9.209,0,0,0-2.451-.86,20.3,20.3,0,0,1-3.134-1,5.154,5.154,0,0,1-1.932-1.386,3.174,3.174,0,0,1-.724-2.116,3.733,3.733,0,0,1,.669-2.117,4.588,4.588,0,0,1,1.973-1.591,7.553,7.553,0,0,1,3.147-.594,10.349,10.349,0,0,1,2.6.3A6.491,6.491,0,0,1-38,39.776a3.983,3.983,0,0,1,1.174,1.12,2.194,2.194,0,0,1,.4,1.2,1.387,1.387,0,0,1-.43,1.051,1.7,1.7,0,0,1-1.222.41,1.5,1.5,0,0,1-.976-.328,6.429,6.429,0,0,1-.922-.983,3.372,3.372,0,0,0-1-.874,3.141,3.141,0,0,0-1.557-.328,3.047,3.047,0,0,0-1.68.43,1.254,1.254,0,0,0-.669,1.072,1.16,1.16,0,0,0,.492.963,4.077,4.077,0,0,0,1.324.621q.833.246,2.294.6a12.27,12.27,0,0,1,2.833,1.011,4.714,4.714,0,0,1,1.666,1.386,3.074,3.074,0,0,1,.567,1.823A4.571,4.571,0,0,1-36.446,51.594Z" transform="translate(54.109 -34.58)"/></svg>