<svg xmlns="http://www.w3.org/2000/svg" xmlns:xlink="http://www.w3.org/1999/xlink" width="21.618" height="26.992" viewBox="0 0 21.618 26.992"><defs><style>.a{fill:#4e4e4e;}.b{clip-path:url(#a);}</style><clipPath id="a"><rect class="a" width="21.618" height="26.992"/></clipPath></defs><g class="b" transform="translate(0 0)"><path class="a" d="M10.809,26.993a1.092,1.092,0,0,1-.774-.321c-2.382-2.382-7.57-8.38-8.9-11.03A10.708,10.708,0,0,1,0,10.809a10.809,10.809,0,1,1,21.618,0,10.7,10.7,0,0,1-1.138,4.833c-1.325,2.649-6.513,8.647-8.9,11.03a1.092,1.092,0,0,1-.774.321m0-24.8A8.629,8.629,0,0,0,2.19,10.809,8.53,8.53,0,0,0,3.1,14.662c1.024,2.045,5.06,6.873,7.713,9.665,2.654-2.793,6.69-7.622,7.713-9.666A8.62,8.62,0,0,0,10.809,2.19" transform="translate(0 0)"/><path class="a" d="M12.23,6.183l1.85,3.465,3.866.689-2.723,2.83.54,3.889L12.23,15.34,8.7,17.055l.54-3.889-2.723-2.83,3.866-.689Z" transform="translate(-1.421 -1.349)"/></g></svg>