<svg xmlns="http://www.w3.org/2000/svg" width="175.368" height="42.669" viewBox="0 0 175.368 42.669"><defs><style>.a{fill:#c7e9fe;}</style></defs><g transform="translate(15769 16242.961)"><g transform="translate(-15707.006 -16222.799)"><path class="a" d="M404.881,198.495V182.78h2.908v12.894h4.788v2.821Z" transform="translate(-404.881 -182.78)"/><path class="a" d="M456.739,202.7a6.186,6.186,0,0,1,3.137.82,5.991,5.991,0,0,1,2.247,2.246,6.177,6.177,0,0,1,.82,3.132,6.06,6.06,0,0,1-.828,3.1,6.125,6.125,0,0,1-2.252,2.252,6.062,6.062,0,0,1-3.1.828,6,6,0,0,1-3.088-.833,6.2,6.2,0,0,1-2.255-2.263,6.06,6.06,0,0,1-.834-3.107,5.971,5.971,0,0,1,.834-3.08,6.269,6.269,0,0,1,2.255-2.258A5.927,5.927,0,0,1,456.739,202.7Zm0,2.733a3.471,3.471,0,0,0-1.705.5,3.517,3.517,0,0,0-.672,5.415,3.227,3.227,0,0,0,2.4,1,3.411,3.411,0,0,0,1.727-.448,3.248,3.248,0,0,0,1.23-1.237,3.557,3.557,0,0,0-.011-3.476,3.547,3.547,0,0,0-1.227-1.278,3.088,3.088,0,0,0-1.653-.475Z" transform="translate(-442.057 -198.985)"/><path class="a" d="M522.263,199.353V190.2H520.9v-2.465h1.367v-3.9h2.8v3.9h1.678V190.2h-1.678v9.156Z" transform="translate(-499.251 -183.638)"/><path class="a" d="M555.983,199.353V190.2h-1.366v-2.465h1.366v-3.9h2.8v3.9h1.678V190.2h-1.678v9.156Z" transform="translate(-526.681 -183.638)"/><path class="a" d="M596.895,202.7a6.187,6.187,0,0,1,3.138.82,5.991,5.991,0,0,1,2.246,2.246,6.176,6.176,0,0,1,.82,3.132,6.061,6.061,0,0,1-.828,3.1,6.124,6.124,0,0,1-2.252,2.252,6.061,6.061,0,0,1-3.1.828,6,6,0,0,1-3.088-.833,6.2,6.2,0,0,1-2.255-2.263,6.06,6.06,0,0,1-.834-3.107,5.97,5.97,0,0,1,.834-3.08,6.271,6.271,0,0,1,2.255-2.258A5.927,5.927,0,0,1,596.895,202.7Zm0,2.733a3.47,3.47,0,0,0-1.705.5,3.517,3.517,0,0,0-.672,5.415,3.228,3.228,0,0,0,2.4,1,3.411,3.411,0,0,0,1.727-.448,3.247,3.247,0,0,0,1.23-1.237,3.557,3.557,0,0,0-.011-3.476,3.547,3.547,0,0,0-1.227-1.278,3.088,3.088,0,0,0-1.653-.475Z" transform="translate(-556.064 -198.985)"/></g><g transform="translate(-15657.841 -16223.395)"><path class="a" d="M677.875,192.886l-1.343,2.821h-8.127a4.234,4.234,0,0,0,.582-2.194V181.691a3.963,3.963,0,0,0-.56-2.1h8.709l-1.169,2.44-.989-.269a12.854,12.854,0,0,0-3.349-.381v5.1h4.657l-1.3,2.328a10.782,10.782,0,0,0-3.352-.672v5.821A18.963,18.963,0,0,0,677.875,192.886Z" transform="translate(-668.405 -179.587)"/><path class="a" d="M728.922,217.474h-3.47l.022-.225a1.509,1.509,0,0,0-.237-.9l-1.817-3.05-1.729,3.053a1.957,1.957,0,0,0-.292.808.87.87,0,0,0,.045.314h-3a7.829,7.829,0,0,0,1.5-1.791l2.44-3.873-2.127-3.47a9.672,9.672,0,0,0-1.567-1.993h3.515a1.024,1.024,0,0,0-.134.493,1.857,1.857,0,0,0,.313.828l1.388,2.418,1.343-2.4a1.976,1.976,0,0,0,.291-.963,1.268,1.268,0,0,0-.045-.381h3.112l-.269.291a11.7,11.7,0,0,0-1.276,1.612l-2.1,3.313,2.552,4.164a11.29,11.29,0,0,0,.649,1.007A2.532,2.532,0,0,0,728.922,217.474Z" transform="translate(-709.108 -201.354)"/><path class="a" d="M788.5,213a6.41,6.41,0,0,1-1.366,2.843,3.516,3.516,0,0,1-2.754,1.321,3.587,3.587,0,0,1-2.731-1.142V218.4a3.95,3.95,0,0,0,.313,1.858l.157.269H778.8a3.9,3.9,0,0,0,.493-2.127v-10.59a3.6,3.6,0,0,0-.313-1.612l-.179-.336h2.843v1.679l.381-.47a3.416,3.416,0,0,1,2.776-1.321,3.371,3.371,0,0,1,3.157,2.127,7.306,7.306,0,0,1,.739,3.313A8.438,8.438,0,0,1,788.5,213Zm-2.216-1.769a5.659,5.659,0,0,0-.313-1.836,3.364,3.364,0,0,0-1.008-1.545,2.056,2.056,0,0,0-1.231-.425,2.51,2.51,0,0,0-1.478.56q-.6.448-.6.627v5.978q0,.247.6.672a2.006,2.006,0,0,0,1.187.381,2.486,2.486,0,0,0,2.351-1.7A6.611,6.611,0,0,0,786.283,211.232Z" transform="translate(-758.208 -200.866)"/><path class="a" d="M847.525,206.391a8.609,8.609,0,0,0-.381,2.418l-.291-.246a2.172,2.172,0,0,0-1.052-.313,1.468,1.468,0,0,0-1.567,1.276l-.067.6v5.261a4.216,4.216,0,0,0,.336,1.791l.134.291h-3.314a4.468,4.468,0,0,0,.493-2.1v-7.075a3.759,3.759,0,0,0-.336-1.612l-.157-.336h2.843v1.993a3,3,0,0,1,1.119-1.358,3.363,3.363,0,0,1,1.769-.635A3.666,3.666,0,0,1,847.525,206.391Z" transform="translate(-809.062 -201.354)"/><path class="a" d="M884.508,210.677l-.022.493h-6.4v.824a4.014,4.014,0,0,0,.851,2.182,2.731,2.731,0,0,0,2.127.89,4.923,4.923,0,0,0,1.97-.461,8.46,8.46,0,0,0,1.3-.7l-.268.533a9.972,9.972,0,0,0-.6,1.532,6.353,6.353,0,0,1-2.978.644,4.593,4.593,0,0,1-3.649-1.43,5.561,5.561,0,0,1-1.187-3.776,12.081,12.081,0,0,1,.179-1.921q.515-3.172,2.866-3.977a6.187,6.187,0,0,1,1.925-.357,3.368,3.368,0,0,1,2.866,1.433A6.4,6.4,0,0,1,884.508,210.677Zm-2.1-1.366a3.092,3.092,0,0,0-.538-2.1,1.917,1.917,0,0,0-2.933-.067,3.609,3.609,0,0,0-.739,2.194l-.022.47h4.209Z" transform="translate(-836.978 -200.378)"/><path class="a" d="M937.933,213.738a2.731,2.731,0,0,1-1.254,2.4,4.782,4.782,0,0,1-2.709.716,7.245,7.245,0,0,1-2.8-.537q.045-.582.045-1.164a10.724,10.724,0,0,0-.067-1.187l.2.224a3.528,3.528,0,0,0,2.584,1.388,1.946,1.946,0,0,0,.8-.179,1.324,1.324,0,0,0,.847-1.3,1.4,1.4,0,0,0-.446-1.007,5.34,5.34,0,0,0-1-.761l-.891-.537a3.845,3.845,0,0,1-1.983-2.284,3.97,3.97,0,0,1-.178-1.052,2.655,2.655,0,0,1,1.254-2.351,4.742,4.742,0,0,1,2.687-.716h.381a2.642,2.642,0,0,0,.4.045,7.513,7.513,0,0,1,1.791.448,3.61,3.61,0,0,0-.022.4v1.075l.067.515-.314-.246a3.75,3.75,0,0,0-2.306-.94,1.865,1.865,0,0,0-1.164.358,1.217,1.217,0,0,0-.47,1.03,1.549,1.549,0,0,0,.716,1.254q.157.112.493.358l.851.6a9.845,9.845,0,0,1,1.993,1.7A3.01,3.01,0,0,1,937.933,213.738Z" transform="translate(-882.075 -200.574)"/><path class="a" d="M982.692,213.738a2.73,2.73,0,0,1-1.254,2.4,4.782,4.782,0,0,1-2.709.716,7.245,7.245,0,0,1-2.8-.537q.044-.582.045-1.164a10.753,10.753,0,0,0-.067-1.187l.2.224a3.527,3.527,0,0,0,2.584,1.388,1.946,1.946,0,0,0,.8-.179,1.324,1.324,0,0,0,.847-1.3,1.4,1.4,0,0,0-.446-1.007,5.34,5.34,0,0,0-1-.761L978,211.79a3.846,3.846,0,0,1-1.983-2.284,3.97,3.97,0,0,1-.178-1.052,2.655,2.655,0,0,1,1.254-2.351,4.743,4.743,0,0,1,2.687-.716h.381a2.641,2.641,0,0,0,.4.045,7.514,7.514,0,0,1,1.791.448,3.582,3.582,0,0,0-.023.4v1.075l.067.515-.314-.246a3.75,3.75,0,0,0-2.306-.94,1.865,1.865,0,0,0-1.164.358,1.217,1.217,0,0,0-.47,1.03,1.549,1.549,0,0,0,.716,1.254q.157.112.493.358l.851.6a9.838,9.838,0,0,1,1.993,1.7A3.009,3.009,0,0,1,982.692,213.738Z" transform="translate(-918.483 -200.574)"/></g><g transform="translate(-15769 -16236.823)"><path class="a" d="M164.137,188.441c0-.023.007-.045.011-.068-.062-.021-.108-.042-.108-.042A.483.483,0,0,0,164.137,188.441Z" transform="translate(-146.98 -173.27)"/><path class="a" d="M164.642,187.51a.159.159,0,0,0,.02.058c0-.019.007-.037.011-.056Z" transform="translate(-147.469 -172.602)"/><path class="a" d="M163.827,189.071c.007-.042.014-.084.021-.126-.082-.048-.146-.092-.146-.092C163.7,188.9,163.774,189,163.827,189.071Z" transform="translate(-146.704 -173.694)"/><path class="a" d="M86.846,122.334a1.426,1.426,0,0,1-.187.132.475.475,0,0,0,.2-.068,3.182,3.182,0,0,1,.6-.085,4.761,4.761,0,0,0,.521-.14.357.357,0,0,0,.243-.2c.007.056.01.121.01.121a1.493,1.493,0,0,0,.259-.23,1.4,1.4,0,0,1-.05.138c-.168.148-.456.361-.456.361l-.192.032a.483.483,0,0,1,.216.141.868.868,0,0,0-.282-.047,4.073,4.073,0,0,1-.656.324.791.791,0,0,0,.283.021c.192-.011.3-.02.455-.026a.658.658,0,0,0,.3-.108,1.259,1.259,0,0,1-.154.134.423.423,0,0,0,.173-.078,2.833,2.833,0,0,1,.523-.129,4.28,4.28,0,0,0,.45-.171.319.319,0,0,0,.2-.2c.011.049.02.106.02.106a1.341,1.341,0,0,0,.209-.228,1.727,1.727,0,0,1-.051.188,1.37,1.37,0,0,0,.254-.344.6.6,0,0,1-.048.215s.078-.054.208-.156a19.261,19.261,0,0,1,4.035-8.324,4.294,4.294,0,0,0-.884-.778.625.625,0,0,1-.026.579,4.609,4.609,0,0,0-.694-.951.737.737,0,0,1,.06.621s-.048-.09-.2-.422a1.425,1.425,0,0,0-.676-.538,1.047,1.047,0,0,1,.432.7,1.041,1.041,0,0,0-.673-.646,5.873,5.873,0,0,1-1.34-.545c-.338-.2-.544-.332-.544-.332a.4.4,0,0,1,.122.4,3.49,3.49,0,0,0-.5-.633,1.409,1.409,0,0,1,.216.572,2.221,2.221,0,0,0-.617-.764.886.886,0,0,1,.17.558.688.688,0,0,0-.236-.373c-.189-.153-.567-.4-.567-.4a.8.8,0,0,1,.277.615,1.955,1.955,0,0,0-.338-.4c-.294-.135-.461-.1-.871-.277a6,6,0,0,1-.567-.274.154.154,0,0,1-.068.239.822.822,0,0,0-.342-.42.419.419,0,0,1-.015.361c-.224-.168-.073-.563-.073-.563-.22.048-.189.488-.189.488a.572.572,0,0,1-.092-.419c-.188.043-.166.43-.166.43a2.5,2.5,0,0,0-.443-.5.409.409,0,0,1,.09.362l-.049-.065a.84.84,0,0,0-.35-.332.313.313,0,0,1,.044.329,1.359,1.359,0,0,0-.379-.446.569.569,0,0,1,.076.153L84.477,110a.363.363,0,0,1,.062.15c0,.008,0,.016,0,.024a.406.406,0,0,1-.061.238,1.228,1.228,0,0,0-.276-.294.191.191,0,0,1,.033.119.826.826,0,0,0-.136-.143.482.482,0,0,1,.088.238,1,1,0,0,0-.394-.189.66.66,0,0,1-.275-.214.4.4,0,0,1,0,.084l-.074-.063a.7.7,0,0,0,.061.133.235.235,0,0,1-.054.1,1.418,1.418,0,0,0-.243-.415c.078.139-.029.407-.029.407.019-.21-.295-.46-.295-.46a.334.334,0,0,1-.1.369,1.824,1.824,0,0,0-.172-.175c.107.11-.012.249-.012.249a.28.28,0,0,0-.14-.182.289.289,0,0,1,.069.2l-.017-.014,0,0a.265.265,0,0,1-.059-.076v0a.158.158,0,0,1-.008-.019v0a.142.142,0,0,1-.007-.052h0a.1.1,0,0,1,0-.026l-.118.063-.147-.086a.58.58,0,0,0,.092.115l-.126.067-.156-.049h0c-.262-.085-.489-.168-.489-.168l-.045.246a1.349,1.349,0,0,0-.715-.249.493.493,0,0,1,.1.148l0,.011.006.018,0,.013s0,.01,0,.014l0,.012s0,.009,0,.013,0,.006,0,.009l-.068-.054a.238.238,0,0,1,.029.171l-.077.01-.023,0-.051,0h-.1l-.045,0h-.021l-.048-.005-.014,0c-.041-.005-.08-.012-.115-.021h-.006l-.044-.011-.012,0-.034-.01-.012,0-.029-.01-.01,0-.026-.01-.008,0-.026-.011h0l-.023-.01-.008,0-.025-.013c.042.038.094.088.152.142a.933.933,0,0,1-.185-.076,4.616,4.616,0,0,0,.583.5.149.149,0,0,1-.01.021c-.025-.054-.151-.111-.151-.111a.285.285,0,0,1,.053.094l-.013,0c.009.013.016.025.024.038a.507.507,0,0,1,.015.136.61.61,0,0,0-.282-.269.312.312,0,0,1,.077.189.474.474,0,0,0-.233-.16.3.3,0,0,1,.1.262c-.079-.15-.315-.151-.388-.188a.384.384,0,0,1-.127-.12c-.043.041-.036.139-.033.174l-.011,0a.631.631,0,0,1-.07-.165.418.418,0,0,0-.016.138l-.006,0,.006.01c0,.07.007.134.007.134a.882.882,0,0,1-.061-.273c-.035.023-.063.185-.063.185-.011-.107-.17-.23-.17-.23a.269.269,0,0,1,.01.3l0,0c.015-.1-.106-.262-.106-.262.06.083-.009.217-.009.217a.43.43,0,0,0-.3-.28c-.163-.04-.217-.066-.248-.126a.367.367,0,0,0-.107-.109.522.522,0,0,1-.006.242.388.388,0,0,0-.062-.228.157.157,0,0,1-.016.131.323.323,0,0,0-.061-.14,4.232,4.232,0,0,1-.413-.185l-.075-.1a.318.318,0,0,1-.019.167.565.565,0,0,0-.055-.177,2.641,2.641,0,0,1-.38-.286.515.515,0,0,0,.071.171c.063.108.1.168.148.257a.428.428,0,0,0,.151.144.83.83,0,0,1-.123-.05.277.277,0,0,0,.1.077c.067.035.115.145.228.266a2.8,2.8,0,0,0,.231.212.207.207,0,0,0,.172.057c-.025.021-.056.042-.056.042a.72.72,0,0,0,.156.048l.006.015c-.044.01-.093.017-.093.017a.416.416,0,0,0,.109.031.6.6,0,0,1,0,.374c-.124-.377-.664-.469-.82-.582a.889.889,0,0,1-.245-.325c-.139.095-.144.419-.144.419a1.31,1.31,0,0,1-.119-.45,2.1,2.1,0,0,0-.129.641,2.041,2.041,0,0,1-.033-.651c-.091.039-.217.4-.217.4.015-.25-.3-.594-.3-.594a.62.62,0,0,1-.1.7c.087-.216-.136-.657-.136-.657.105.213-.1.5-.1.5a1,1,0,0,0-.572-.758c-.359-.155-.472-.236-.522-.386a.855.855,0,0,0-.2-.293,1.216,1.216,0,0,1-.108.554.906.906,0,0,0-.054-.549.363.363,0,0,1-.087.294.745.745,0,0,0-.085-.345,9.866,9.866,0,0,1-.878-.586l-.132-.263a.736.736,0,0,1-.108.376,1.318,1.318,0,0,0-.058-.429,6.186,6.186,0,0,1-.762-.8,1.2,1.2,0,0,0,.1.42c.1.273.163.425.241.647a1,1,0,0,0,.292.39,1.929,1.929,0,0,1-.264-.164.643.643,0,0,0,.19.215c.141.107.208.378.42.7a6.446,6.446,0,0,0,.449.576.482.482,0,0,0,.374.2c-.066.038-.145.075-.145.075a2.022,2.022,0,0,0,.423.2,2.561,2.561,0,0,1-.3.01,2.077,2.077,0,0,0,.612.214.914.914,0,0,1-.332.026s.225.176.622.437.816.641,1.229.873a.6.6,0,0,0,.661.041l-.117.214a1.5,1.5,0,0,0,.468-.177c-.082.142-.181.3-.181.3.3-.026.587-.421.587-.421a1.5,1.5,0,0,1-.245.383.873.873,0,0,0,.379-.168,1.175,1.175,0,0,1-.378.39c.134-.021.391.113.657.115a.635.635,0,0,0,.44-.194.764.764,0,0,1-.107.288l-.018-.026c-.108.1-.065.39-.065.39a1.172,1.172,0,0,1-.172-.379,1.876,1.876,0,0,0-.018.584,1.83,1.83,0,0,1-.126-.568c-.074.047-.131.384-.131.384-.024-.222-.355-.478-.355-.478a.554.554,0,0,1,.014.633c.044-.2-.218-.559-.218-.559.124.172-.018.451-.018.451a.9.9,0,0,0-.617-.582c-.339-.083-.451-.138-.517-.263a.765.765,0,0,0-.222-.228,1.086,1.086,0,0,1-.013.5.809.809,0,0,0-.129-.476.324.324,0,0,1-.032.272.667.667,0,0,0-.126-.292,8.819,8.819,0,0,1-.86-.385l-.156-.212a.657.657,0,0,1-.04.347,1.177,1.177,0,0,0-.115-.369,5.511,5.511,0,0,1-.79-.6,1.065,1.065,0,0,0,.147.355c.131.225.207.35.308.534a.891.891,0,0,0,.315.3,1.709,1.709,0,0,1-.257-.105.571.571,0,0,0,.2.161.435.435,0,0,1,.125.11l-.11-.069a1.107,1.107,0,0,0,.208.34c.171.21.269.325.4.5a.923.923,0,0,0,.372.257,1.8,1.8,0,0,1-.28-.066.6.6,0,0,0,.231.133c.155.052.295.271.576.491a5.966,5.966,0,0,0,.564.373.448.448,0,0,0,.388.065c-.046.053-.105.109-.105.109a1.88,1.88,0,0,0,.431.053,2.455,2.455,0,0,1-.257.1,1.931,1.931,0,0,0,.6.007.844.844,0,0,1-.284.121s.25.088.676.2.906.322,1.338.4a.56.56,0,0,0,.593-.159l-.039.223a1.274,1.274,0,0,0,.337-.27l.019-.009c-.03.145-.068.3-.068.3a.733.733,0,0,0,.307-.344c.018-.006.038-.014.058-.023-.006.026-.013.05-.02.073-.042.05-.07.081-.07.081a.38.38,0,0,0,.051-.02c-.02.059-.037.1-.037.1a.438.438,0,0,0,.136-.09c.021.009.048.02.084.034l0,0,0,0h0a1.234,1.234,0,0,1-.152.246.371.371,0,0,1,.13-.03,1.133,1.133,0,0,0,.007.359c-.086-.188-.453-.316-.453-.316a.513.513,0,0,1,.2.552c-.021-.192-.356-.427-.356-.427.16.115.117.4.117.4a.832.832,0,0,0-.714-.33c-.323.027-.437.012-.532-.078a.708.708,0,0,0-.263-.135,1.008,1.008,0,0,1,.137.447.75.75,0,0,0-.254-.38.3.3,0,0,1,.052.248.619.619,0,0,0-.2-.219,8.169,8.169,0,0,1-.87-.085l-.2-.141a.61.61,0,0,1,.068.317,1.085,1.085,0,0,0-.21-.29,5.117,5.117,0,0,1-.87-.29.992.992,0,0,0,.234.269c.181.16.285.246.428.378a.826.826,0,0,0,.366.171,1.592,1.592,0,0,1-.257-.017.531.531,0,0,0,.223.083.99.99,0,0,1,.334.192.654.654,0,0,1,.085.329,1.163,1.163,0,0,0-.237-.3,5.438,5.438,0,0,1-.938-.265,1.056,1.056,0,0,0,.262.274c.2.161.315.247.474.381a.879.879,0,0,0,.4.164,1.7,1.7,0,0,1-.273-.005.565.565,0,0,0,.241.077c.155.017.328.192.633.34a5.7,5.7,0,0,0,.6.233.425.425,0,0,0,.372-.018c-.032.058-.076.122-.076.122a1.785,1.785,0,0,0,.411-.038,2.308,2.308,0,0,1-.219.141,1.832,1.832,0,0,0,.559-.114.806.806,0,0,1-.239.17s.25.032.667.05.905.117,1.323.106a.532.532,0,0,0,.518-.267l.007.187c-.053-.015-.089-.021-.089-.021a.487.487,0,0,1,.263.491c-.046-.177-.393-.352-.393-.352.166.086.165.362.165.362a.789.789,0,0,0-.716-.211c-.3.07-.409.072-.51,0a.674.674,0,0,0-.265-.09.957.957,0,0,1,.191.4.712.712,0,0,0-.291-.321.284.284,0,0,1,.083.226.588.588,0,0,0-.215-.179,7.746,7.746,0,0,1-.828.04l-.207-.1a.579.579,0,0,1,.107.288,1.035,1.035,0,0,0-.237-.244,4.851,4.851,0,0,1-.857-.152.944.944,0,0,0,.257.22c.192.125.3.192.455.3a.782.782,0,0,0,.367.11,1.513,1.513,0,0,1-.243.02.5.5,0,0,0,.221.047,3.38,3.38,0,0,1,.593.246,5.1,5.1,0,0,0,.553.154.4.4,0,0,0,.138.016l.136.049h0l.186.068-.009.007H81.3l.147.056a.812.812,0,0,0,.4.027,1.568,1.568,0,0,1-.242.076.522.522,0,0,0,.235,0,3.51,3.51,0,0,1,.657.112,5.238,5.238,0,0,0,.6.028.394.394,0,0,0,.322-.126c-.011.061-.031.13-.031.13a1.656,1.656,0,0,0,.35-.155,2.114,2.114,0,0,1-.151.188,1.7,1.7,0,0,0,.457-.265.743.743,0,0,1-.16.22s.229-.046.6-.153c.3-.086.656-.141.973-.228.159.04.235.265.235.265a.733.733,0,0,0-.692.026c-.243.15-.338.184-.449.151a.626.626,0,0,0-.26,0c.136.053.286.3.286.3a.662.662,0,0,0-.351-.2.265.265,0,0,1,.14.174.548.548,0,0,0-.242-.093,7.174,7.174,0,0,1-.716.28l-.212-.031a.537.537,0,0,1,.179.221.96.96,0,0,0-.281-.144,4.521,4.521,0,0,1-.8.119.874.874,0,0,0,.291.118c.206.053.322.079.487.126a.726.726,0,0,0,.355-.011,1.4,1.4,0,0,1-.208.089.392.392,0,0,0,.1,0c-.241.064-.513.123-.513.123l-.227-.06a.586.586,0,0,1,.168.263,1.049,1.049,0,0,0-.287-.191,4.922,4.922,0,0,1-.883.031.956.956,0,0,0,.3.164c.217.083.34.126.514.2a.794.794,0,0,0,.387.031,1.517,1.517,0,0,1-.237.071.51.51,0,0,0,.229,0,3.415,3.415,0,0,1,.64.118,5.239,5.239,0,0,0,.581.035.384.384,0,0,0,.316-.119c-.012.059-.031.126-.031.126a1.609,1.609,0,0,0,.343-.146,2.061,2.061,0,0,1-.15.182,1.656,1.656,0,0,0,.45-.253.727.727,0,0,1-.16.213s.17-.032.455-.106a.267.267,0,0,1,.116.162.533.533,0,0,0-.235-.095,7.007,7.007,0,0,1-.7.264l-.207-.033a.526.526,0,0,1,.172.219.936.936,0,0,0-.272-.144,4.38,4.38,0,0,1-.782.106.851.851,0,0,0,.283.119c.2.054.313.082.474.13a.711.711,0,0,0,.347-.007,1.371,1.371,0,0,1-.2.084.455.455,0,0,0,.2-.02,3.055,3.055,0,0,1,.579.048,4.621,4.621,0,0,0,.519-.02.343.343,0,0,0,.27-.134c-.005.054-.016.115-.016.115a1.443,1.443,0,0,0,.292-.161,1.872,1.872,0,0,1-.117.175,1.478,1.478,0,0,0,.378-.265.572.572,0,0,1-.1.17c-.249.1-.539.182-.539.182a.881.881,0,0,0,.313.055c.215.009.336.011.51.022A.738.738,0,0,0,86.846,122.334Zm2.189-1.636a.306.306,0,0,0-.1-.048.441.441,0,0,0-.007-.094A.51.51,0,0,1,89.035,120.7Zm-.181,1.131c.054.037.092.07.092.07a.869.869,0,0,0-.127-.048Zm-.1.109a.32.32,0,0,0-.06-.015l.033-.02A.246.246,0,0,1,88.758,121.938Zm-.049-.191.018.008a.506.506,0,0,1-.019.072.48.48,0,0,0-.054,0C88.677,121.793,88.7,121.767,88.71,121.747Zm-.069.092a.214.214,0,0,1,.052.028c-.008.02-.016.038-.023.051a.569.569,0,0,0-.094,0C88.6,121.892,88.621,121.865,88.641,121.84Zm-.187-1h0Zm-.139.062-.019.012c-.011-.052-.022-.086-.022-.086A.636.636,0,0,1,88.316,120.9Zm-1.056-.586-.014,0c-.005-.034-.01-.055-.01-.055C87.244,120.283,87.252,120.3,87.259,120.318Zm-.2.382c.043.04.081.072.1.088l0,.008a.57.57,0,0,1-.115-.054Zm-.177.077.014.022.01.029a.26.26,0,0,0-.032-.019A.3.3,0,0,0,86.886,120.778ZM79.3,111.449c0,.018-.005.028-.005.028s-.008-.024-.011-.036Zm-.382,1.969a.645.645,0,0,1-.179-.142,2.492,2.492,0,0,0,.475-.235l.054.016a1.561,1.561,0,0,1-.329.36,1.511,1.511,0,0,0,.545-.3c.045.014.089.028.131.045-.032.034-.064.068-.1.1l-.008,0,.005.006c-.108.106-.211.193-.264.237A2.516,2.516,0,0,1,78.919,113.418Zm.376.1a1.266,1.266,0,0,0,.3-.157.715.715,0,0,1,.076.126.777.777,0,0,1-.173.11A1.1,1.1,0,0,0,79.295,113.518Zm.432.29a.5.5,0,0,0-.207-.2c.043,0,.109,0,.2,0A.475.475,0,0,1,79.727,113.808Zm.087-.455-.034.036a1.291,1.291,0,0,0-.126-.068c.039-.028.077-.057.113-.085.013.007.026.013.039.021s.041.023.062.034C79.851,113.311,79.834,113.332,79.813,113.354Zm.609.408c-.008-.017-.017-.034-.026-.05l.026,0C80.423,113.744,80.422,113.761,80.422,113.761Zm.458,2.068.119-.008a2.2,2.2,0,0,0,.153.454A1.581,1.581,0,0,1,80.881,115.829Zm.159-.01c.047,0,.1-.007.145-.014a.8.8,0,0,0,.075.235A.89.89,0,0,1,81.039,115.819Zm.611,0a.686.686,0,0,1-.144,0,.548.548,0,0,1-.159-.051l.042-.016c.094.018.182.031.267.044Zm.8,2.3a1.42,1.42,0,0,0,.249-.325c0,.145,0,.307,0,.307a.369.369,0,0,0,.049-.043,1.586,1.586,0,0,0,.058.267A.672.672,0,0,0,82.445,118.119Zm.332-.1a1.11,1.11,0,0,0,.165-.46l.009-.007a1.392,1.392,0,0,1-.017.37.4.4,0,0,0,.1-.1.346.346,0,0,0,.039.182c-.012.03-.023.054-.029.067a1.328,1.328,0,0,1-.185-.17,1.657,1.657,0,0,0,.218.465A1.386,1.386,0,0,1,82.777,118.014Zm.271.061a.29.29,0,0,1,.046-.024.829.829,0,0,0,.048.079A.481.481,0,0,1,83.048,118.075Zm.075-.237a.841.841,0,0,1-.077-.037,1.035,1.035,0,0,0,.078-.134l.023,0A.83.83,0,0,1,83.123,117.838Zm.13-6.9a.374.374,0,0,0-.012-.045l.021.011A.205.205,0,0,1,83.253,110.941Zm.4,6.88a.535.535,0,0,0,.112-.14l.1-.008a.773.773,0,0,1,.009.124A1.02,1.02,0,0,0,83.657,117.821Zm.324-.013c.023-.027.045-.057.066-.087a.416.416,0,0,1,.087.152A.4.4,0,0,0,83.982,117.808Zm-.158,2.966.034,0a.267.267,0,0,1,.006.031A.378.378,0,0,0,83.823,120.773Zm.2.015h.029c.023.041.036.069.036.069C84.069,120.833,84.047,120.81,84.026,120.788Zm2.157-1.81c.025.022.043.035.043.035a.364.364,0,0,1-.054-.008Zm-.139-.051.016.043-.022-.009A.244.244,0,0,0,86.044,118.927Zm-.685,1.552v.005h0l0,0Zm-.135.967.12-.032.011,0a1.216,1.216,0,0,1,.178.225A.73.73,0,0,0,85.224,121.446Zm.349-.087.151-.032A.338.338,0,0,1,85.573,121.359Zm.292-1.8a.821.821,0,0,0-.416-.174c.075-.021.149-.043.218-.068l.03-.012a.425.425,0,0,1,.179.257Zm-.024-.331a.576.576,0,0,0,.066-.053c.037.061.074.113.074.113A.339.339,0,0,0,85.841,119.226Zm.132-.128a.448.448,0,0,0,.037-.062,2.524,2.524,0,0,0,.226.206A.921.921,0,0,1,85.974,119.1Zm.273-.337.007-.032.01.029Zm.525,2.224a.366.366,0,0,1,.05.134.283.283,0,0,0-.1-.088A.548.548,0,0,0,86.771,120.985Zm-.022,1.155a.866.866,0,0,0-.2-.066l.1-.038A.611.611,0,0,1,86.749,122.139Zm-.151-3.7a.623.623,0,0,1,.035.121l-.059.034A1.017,1.017,0,0,0,86.6,118.443Zm-.176.251a1.3,1.3,0,0,0-.02-.239l.01-.005a1.1,1.1,0,0,1,.067.207Zm.093,2.444c.028-.01.053-.02.077-.031a.594.594,0,0,1,.036.083,1.185,1.185,0,0,0-.131-.046Z" transform="translate(-72.596 -107.606)"/><path class="a" d="M162.074,190.1a.46.46,0,0,1,.384.263c.013-.089.026-.178.04-.266A.947.947,0,0,0,162.074,190.1Z" transform="translate(-145.38 -174.683)"/><path class="a" d="M149.242,191.226a.9.9,0,0,0-.437-.128c.17.01.272.24.272.24a.719.719,0,0,0-.674.09c-.223.169-.313.211-.424.189a.609.609,0,0,0-.254.023.869.869,0,0,1,.307.262.649.649,0,0,0-.361-.16.261.261,0,0,1,.153.158.537.537,0,0,0-.245-.069,7.026,7.026,0,0,1-.674.34l-.211-.01a.527.527,0,0,1,.2.2.942.942,0,0,0-.288-.114,4.428,4.428,0,0,1-.769.191.86.86,0,0,0,.3.088c.206.032.322.048.488.078a.711.711,0,0,0,.346-.044,1.372,1.372,0,0,1-.195.107.455.455,0,0,0,.2-.043,1.156,1.156,0,0,1,.4-.012l-.01,0a.764.764,0,0,0,.271.052c.186.011.29.014.44.026a.634.634,0,0,0,.3-.07,1.23,1.23,0,0,1-.164.112.412.412,0,0,0,.175-.056,2.739,2.739,0,0,1,.518-.065c.085-.015.146-.028.2-.041Q149.146,191.892,149.242,191.226Zm-.977,1.214.009-.009.016.021Z" transform="translate(-132.168 -175.521)"/></g><g transform="translate(-15722.04 -16242.961)"><path class="a" d="M364.354,171.852l0,0,.009,0Z" transform="translate(-356.881 -153.728)"/><path class="a" d="M363.977,169.672a.927.927,0,0,0-.194.114q.045.121.089.243a.5.5,0,0,0,.155-.03c.146-.056.248-.09.43-.156a.788.788,0,0,0,.253-.131A4.1,4.1,0,0,1,363.977,169.672Z" transform="translate(-356.416 -151.955)"/><path class="a" d="M324.381,119.962a.354.354,0,0,1,.026-.168s-.043.042-.11.112Z" transform="translate(-324.297 -111.383)"/><path class="a" d="M363.539,169.479a.419.419,0,0,1,.11-.138l-.149.036Z" transform="translate(-356.186 -151.686)"/><path class="a" d="M343.36,75.107a1.108,1.108,0,0,0,.015-.4,5.728,5.728,0,0,1-.552.864,1.222,1.222,0,0,0,.022.4.681.681,0,0,1-.164-.323l-.075.262a9.092,9.092,0,0,1-.7.685.691.691,0,0,0-.017.329.336.336,0,0,1-.13-.252.839.839,0,0,0,.046.509,1.127,1.127,0,0,1-.195-.485.79.79,0,0,0-.133.3c-.019.146-.108.239-.407.442a.93.93,0,0,0-.388.789s-.24-.22-.181-.432c0,0-.126.44-.009.621a.574.574,0,0,1-.215-.62,1.041,1.041,0,0,0-.171.593s-.177-.306-.267-.326a1.886,1.886,0,0,1,.083.6,1.939,1.939,0,0,0-.228-.56,1.208,1.208,0,0,1-.03.43s-.061-.294-.2-.356a.823.823,0,0,1-.166.338c-.122.13-.6.308-.644.671a.555.555,0,0,1-.064-.34.392.392,0,0,0,.094-.047s-.046,0-.088,0l0-.015a.681.681,0,0,0,.134-.071s-.032-.014-.058-.029a.191.191,0,0,0,.147-.082,2.542,2.542,0,0,0,.173-.232c.081-.13.106-.238.161-.282a.253.253,0,0,0,.073-.087.757.757,0,0,1-.1.067.4.4,0,0,0,.112-.157c.029-.089.052-.15.09-.259a.477.477,0,0,0,.035-.167,2.456,2.456,0,0,1-.3.326.521.521,0,0,0-.019.171.293.293,0,0,1-.046-.148l-.05.106a3.945,3.945,0,0,1-.344.24.3.3,0,0,0-.031.138.144.144,0,0,1-.037-.116.358.358,0,0,0-.017.218.482.482,0,0,1-.048-.219.34.34,0,0,0-.078.118c-.018.06-.063.093-.2.158a.4.4,0,0,0-.221.306s-.086-.11-.046-.2a.47.47,0,0,0-.05.256l0,0a.249.249,0,0,1-.043-.274s-.123.14-.115.239c0,0-.053-.142-.09-.157a.817.817,0,0,1-.007.259s-.005-.06-.017-.123l0-.01-.005,0a.379.379,0,0,0-.039-.123.58.58,0,0,1-.035.162l-.009.005c0-.032-.014-.123-.06-.153a.352.352,0,0,1-.095.131c-.061.046-.274.088-.32.238a.273.273,0,0,1,.049-.257s-.151.083-.184.186a.289.289,0,0,1,.037-.185.563.563,0,0,0-.21.293.481.481,0,0,1-.01-.126c.005-.013.01-.026.016-.038l-.012,0a.266.266,0,0,1,.032-.095s-.105.073-.118.127a.125.125,0,0,1-.013-.017,4.274,4.274,0,0,0,.444-.552.876.876,0,0,1-.155.1c.043-.06.081-.114.113-.156l-.021.017-.006,0-.019.014h0l-.022.015-.007,0-.022.014-.009.005-.025.014-.01.006-.029.015-.01.005-.038.018-.006,0c-.031.014-.065.027-.1.039l-.013,0-.043.013-.018,0-.041.01-.022,0-.042.008-.023,0-.047.006-.021,0-.072,0a.22.22,0,0,1,0-.161l-.052.061s0-.006,0-.009a.112.112,0,0,1,0-.012s0-.008,0-.011,0-.009,0-.014,0-.008,0-.012,0-.011,0-.017l0-.011a.448.448,0,0,1,.066-.152,1.247,1.247,0,0,0-.607.351l-.084-.216s-.192.115-.415.238h0l-.133.072-.126-.039a.524.524,0,0,0,.063-.121s-.059.053-.118.1l-.118-.036a.089.089,0,0,1,.008.022h0a.133.133,0,0,1,0,.049v0a.154.154,0,0,1,0,.019v0a.251.251,0,0,1-.041.079l0,0-.013.015a.267.267,0,0,1,.028-.2.259.259,0,0,0-.1.19s-.132-.106-.055-.224a1.685,1.685,0,0,0-.126.19.31.31,0,0,1-.152-.319s-.241.283-.188.47c0,0-.144-.225-.1-.365a1.317,1.317,0,0,0-.149.42.219.219,0,0,1-.065-.078.652.652,0,0,0,.033-.131l-.057.07a.382.382,0,0,1-.015-.076.609.609,0,0,1-.212.243c-.136.086-.255.13-.325.24a.445.445,0,0,1,.039-.231.771.771,0,0,0-.1.153.176.176,0,0,1,.01-.114,1.131,1.131,0,0,0-.2.315.375.375,0,0,1-.1-.206c0-.008,0-.015,0-.023a.334.334,0,0,1,.03-.147l-.026.05a.526.526,0,0,1,.043-.152,1.258,1.258,0,0,0-.267.472.29.29,0,0,1-.017-.307.779.779,0,0,0-.26.363l-.033.068a.379.379,0,0,1,.018-.345,2.308,2.308,0,0,0-.315.532s-.048-.356-.226-.362a.529.529,0,0,1-.011.4s-.049-.405-.257-.41c0,0,.206.332.031.524a.388.388,0,0,1-.077-.325.759.759,0,0,0-.238.441s-.179-.046-.1-.206a5.567,5.567,0,0,1-.468.347c-.341.236-.5.229-.744.4a1.8,1.8,0,0,0-.238.421.742.742,0,0,1,.145-.607s-.3.294-.446.466a.637.637,0,0,0-.15.38.82.82,0,0,1,.057-.536,2.055,2.055,0,0,0-.428.8,1.3,1.3,0,0,1,.1-.557,3.232,3.232,0,0,0-.342.662.371.371,0,0,1,.041-.387s-.165.152-.437.4a5.441,5.441,0,0,1-1.123.729.964.964,0,0,0-.5.7.969.969,0,0,1,.271-.71,1.317,1.317,0,0,0-.521.606c-.082.329-.11.418-.11.418a.682.682,0,0,1-.054-.575,4.8,4.8,0,0,0-.4.782,19.418,19.418,0,0,1,6.244,7.214,2.125,2.125,0,0,0,.275.013,2.93,2.93,0,0,1,.558-.026.442.442,0,0,0,.195.026,1.332,1.332,0,0,1-.193-.088.683.683,0,0,0,.333.018c.156-.04.265-.063.459-.109a.815.815,0,0,0,.275-.1s-.278-.024-.521-.071a.53.53,0,0,1-.116-.138,1.373,1.373,0,0,0,.389.175,1.713,1.713,0,0,1-.137-.139,1.339,1.339,0,0,0,.294.1s-.021-.054-.035-.1a.317.317,0,0,0,.269.074,4.294,4.294,0,0,0,.476-.072,2.828,2.828,0,0,1,.518-.145.423.423,0,0,0,.189-.017,1.273,1.273,0,0,1-.2-.041.658.658,0,0,0,.317-.054c.138-.071.236-.116.408-.2a.784.784,0,0,0,.236-.157,4.075,4.075,0,0,1-.729.04.866.866,0,0,0-.222.179.487.487,0,0,1,.118-.229l-.183.066a6.526,6.526,0,0,1-.685-.118.494.494,0,0,0-.2.127.248.248,0,0,1,.078-.168c.272.018.432.017.432.017a.675.675,0,0,1-.182-.165,1.532,1.532,0,0,0,.454.152,1.91,1.91,0,0,1-.168-.139,1.484,1.484,0,0,0,.338.073s-.03-.058-.051-.109a.355.355,0,0,0,.308.053,4.789,4.789,0,0,0,.522-.133,3.15,3.15,0,0,1,.562-.219.472.472,0,0,0,.208-.04,1.416,1.416,0,0,1-.228-.024.735.735,0,0,0,.346-.1c.146-.095.25-.156.433-.269a.884.884,0,0,0,.246-.2,4.559,4.559,0,0,1-.808.126.971.971,0,0,0-.228.224.544.544,0,0,1,.107-.268l-.2.094s-.257-.006-.487-.022a.363.363,0,0,0,.094-.017,1.3,1.3,0,0,1-.2-.045.671.671,0,0,0,.325-.051c.142-.071.243-.115.421-.2a.809.809,0,0,0,.244-.158,4.183,4.183,0,0,1-.747.031.889.889,0,0,0-.23.18.5.5,0,0,1,.124-.233l-.188.065a6.655,6.655,0,0,1-.7-.13.5.5,0,0,0-.2.127.245.245,0,0,1,.1-.183.613.613,0,0,0-.285.24.819.819,0,0,1,.208-.319.579.579,0,0,0-.236.046c-.095.049-.187.035-.434-.059a.678.678,0,0,0-.633.1s.03-.218.167-.282c.3.024.636.012.924.038.357.032.573.034.573.034a.689.689,0,0,1-.184-.172,1.568,1.568,0,0,0,.462.161,1.935,1.935,0,0,1-.17-.145,1.527,1.527,0,0,0,.345.08s-.029-.059-.05-.113a.364.364,0,0,0,.315.059,4.9,4.9,0,0,0,.536-.129,3.242,3.242,0,0,1,.578-.216.485.485,0,0,0,.214-.038,1.452,1.452,0,0,1-.233-.027.753.753,0,0,0,.356-.093l.124-.077.021,0-.009,0,.157-.094h0l.115-.068a.376.376,0,0,0,.122-.039,4.735,4.735,0,0,0,.476-.236c.24-.145.37-.3.5-.327a.465.465,0,0,0,.193-.082,1.412,1.412,0,0,1-.225.024.725.725,0,0,0,.314-.164c.121-.122.209-.2.362-.349a.87.87,0,0,0,.2-.245,4.493,4.493,0,0,1-.753.288.957.957,0,0,0-.173.263.536.536,0,0,1,.047-.281l-.17.131a7.181,7.181,0,0,1-.76.108.545.545,0,0,0-.164.2.264.264,0,0,1,.036-.22.659.659,0,0,0-.209.343.884.884,0,0,1,.1-.4.621.621,0,0,0-.225.128c-.08.083-.179.1-.464.089a.731.731,0,0,0-.614.317s-.048-.251.087-.357c0,0-.286.219-.3.388a.45.45,0,0,1,.153-.492s-.032.012-.077.035l-.026-.171a.492.492,0,0,0,.518.152c.381-.063.807-.237,1.184-.327s.6-.162.6-.162a.747.747,0,0,1-.247-.112,1.7,1.7,0,0,0,.528.006,2.11,2.11,0,0,1-.224-.09,1.649,1.649,0,0,0,.38-.037s-.051-.051-.09-.1a.393.393,0,0,0,.342-.048,5.3,5.3,0,0,0,.5-.316c.252-.188.379-.377.516-.42a.52.52,0,0,0,.206-.112,1.575,1.575,0,0,1-.248.052.811.811,0,0,0,.332-.218c.121-.149.21-.248.364-.429a.974.974,0,0,0,.19-.295,5.034,5.034,0,0,1-.807.4,1.075,1.075,0,0,0-.164.312.605.605,0,0,1,.02-.313.915.915,0,0,1,.27-.233.491.491,0,0,0,.188-.114,1.474,1.474,0,0,1-.23.06.763.763,0,0,0,.3-.219c.107-.145.186-.242.323-.419a.911.911,0,0,0,.166-.285,4.741,4.741,0,0,1-.74.415,1.008,1.008,0,0,0-.141.3.563.563,0,0,1,.006-.3l-.157.163a7.523,7.523,0,0,1-.776.229.575.575,0,0,0-.141.233.278.278,0,0,1,0-.235.693.693,0,0,0-.165.389.931.931,0,0,1,.047-.43.652.652,0,0,0-.215.168c-.071.1-.172.132-.47.164a.77.77,0,0,0-.592.424s-.089-.254.036-.386c0,0-.264.272-.249.45a.475.475,0,0,1,.085-.537s-.311.18-.357.366a1.05,1.05,0,0,0-.056-.328.347.347,0,0,1,.123.005,1.142,1.142,0,0,1-.181-.2h0l0,0c.031-.018.054-.034.071-.045a.41.41,0,0,0,.139.058s-.022-.033-.051-.083a.357.357,0,0,0,.049.009s-.031-.023-.078-.061c-.01-.02-.021-.041-.031-.063l.057.011a.676.676,0,0,0,.339.26s-.061-.135-.114-.262l.019.005a1.181,1.181,0,0,0,.353.187l-.074-.2a.518.518,0,0,0,.567.041c.378-.15.778-.425,1.146-.6s.579-.3.579-.3a.784.784,0,0,1-.28-.061,1.782,1.782,0,0,0,.545-.111,2.25,2.25,0,0,1-.25-.042,1.742,1.742,0,0,0,.383-.123s-.063-.041-.115-.081a.414.414,0,0,0,.341-.126,5.523,5.523,0,0,0,.448-.438c.217-.25.306-.472.438-.547a.552.552,0,0,0,.187-.161,1.678,1.678,0,0,1-.243.109.856.856,0,0,0,.293-.3c.091-.18.161-.3.28-.522a1.032,1.032,0,0,0,.13-.346l-.088.082a.4.4,0,0,1,.094-.122.528.528,0,0,0,.153-.182,1.582,1.582,0,0,1-.215.14.826.826,0,0,0,.234-.328c.06-.185.107-.312.187-.539a.988.988,0,0,0,.072-.349,5.1,5.1,0,0,1-.614.679,1.083,1.083,0,0,0-.04.355.608.608,0,0,1-.1-.309l-.1.22a8.131,8.131,0,0,1-.715.5.617.617,0,0,0-.064.287.3.3,0,0,1-.077-.242.749.749,0,0,0-.035.455,1,1,0,0,1-.1-.456.705.705,0,0,0-.163.246c-.038.125-.13.194-.424.329a.83.83,0,0,0-.459.637s-.178-.229-.1-.407c0,0-.176.369-.1.546a.512.512,0,0,1-.1-.578s-.256.29-.239.5c0,0-.11-.3-.186-.326a1.693,1.693,0,0,1-.016.539,1.731,1.731,0,0,0-.118-.527,1.084,1.084,0,0,1-.091.374s-.01-.268-.126-.343l-.012.026a.708.708,0,0,1-.147-.243.587.587,0,0,0,.433.1c.241-.048.452-.214.577-.219a1.085,1.085,0,0,1-.412-.288.81.81,0,0,0,.374.087,1.382,1.382,0,0,1-.289-.306s.332.309.606.281c0,0-.116-.125-.216-.24a1.382,1.382,0,0,0,.456.08l-.143-.174a.559.559,0,0,0,.594-.152c.335-.283.65-.7.965-1.007s.489-.505.489-.505a.847.847,0,0,1-.307.034,1.923,1.923,0,0,0,.519-.3,2.379,2.379,0,0,1-.27.043,1.862,1.862,0,0,0,.349-.257s-.079-.02-.145-.043a.447.447,0,0,0,.305-.246,6,6,0,0,0,.308-.6,3.978,3.978,0,0,1,.26-.71.593.593,0,0,0,.135-.229,1.786,1.786,0,0,1-.211.195.924.924,0,0,0,.2-.406C343.286,75.522,343.315,75.373,343.36,75.107Zm-11.1,13.711c0-.017.008-.034.013-.051,0,0,0,.02,0,.051Zm.169.418v-.007c.015-.018.043-.054.075-.1l.019.036A.521.521,0,0,1,332.429,89.237Zm.1-2.121a.578.578,0,0,1,.01-.117.944.944,0,0,0,.049.137Zm.141,2.106,0-.028.009-.023a.258.258,0,0,0,.013.028A.264.264,0,0,0,332.666,89.221Zm.014-2.049a1.02,1.02,0,0,1,.025-.2l.01,0a1.231,1.231,0,0,0,.024.221Zm.118,2.3a.337.337,0,0,1,.022-.131.492.492,0,0,0,.056.033A.259.259,0,0,0,332.8,89.47Zm.1-2.243,0-.028.012.028Zm.229.115a.206.206,0,0,0,.011.03l-.018.012Zm-.151.11s.014-.015.033-.039l.015.023A.329.329,0,0,1,332.972,87.452Zm.014,2.049a.558.558,0,0,1,.018-.082.724.724,0,0,0,.075.015l.018,0A1.078,1.078,0,0,0,332.987,89.5Zm.055.884a.561.561,0,0,1,.07-.112l.1.017A.8.8,0,0,0,333.042,90.385ZM333,87.661a2.357,2.357,0,0,0,.17-.226.43.43,0,0,0,.044.05A.852.852,0,0,1,333,87.661Zm.239,0s.025-.053.048-.115a.524.524,0,0,0,.07.037A.318.318,0,0,0,333.241,87.657Zm2.19.986.031-.009a.362.362,0,0,0-.031.039S335.431,88.66,335.432,88.643Zm-.177.045.026-.006c-.016.023-.031.048-.047.075C335.234,88.757,335.242,88.729,335.255,88.688Zm-1.074.792h.01l.115.008a.674.674,0,0,0-.247.227A1.118,1.118,0,0,1,334.181,89.48Zm-.166-.847,0,0,0,0h0Zm-.042.837a.31.31,0,0,1-.142,0Zm-.579-1.587-.009,0a.393.393,0,0,1,.118-.265l.029.006c.067.011.138.018.21.024A.76.76,0,0,0,333.395,87.883Zm.874-8.287a.2.2,0,0,1-.014-.029l.017-.014A.383.383,0,0,0,334.269,79.6Zm.406,6.454a.385.385,0,0,1,.052-.153c.025.024.05.047.075.068A.373.373,0,0,0,334.675,86.051Zm.221-.114a.74.74,0,0,1-.013-.115l.09-.01a.5.5,0,0,0,.126.108A.92.92,0,0,0,334.9,85.937Zm.642-.242.02-.006a.962.962,0,0,0,.094.108.746.746,0,0,1-.064.047A.769.769,0,0,1,335.538,85.695Zm.083.416a.793.793,0,0,0,.03-.08.26.26,0,0,1,.046.014A.446.446,0,0,1,335.621,86.111Zm.1.2a1.524,1.524,0,0,0,.118-.461,1.224,1.224,0,0,1-.139.187c-.008-.011-.022-.031-.038-.056a.315.315,0,0,0,0-.173.365.365,0,0,0,.106.071,1.283,1.283,0,0,1-.08-.333l.009,0a1.023,1.023,0,0,0,.23.389A1.275,1.275,0,0,1,335.724,86.315Zm.529-.334a.622.622,0,0,0-.286.248,1.485,1.485,0,0,0,.007-.253.323.323,0,0,0,.052.031s-.032-.147-.055-.279A1.316,1.316,0,0,0,336.253,85.981Zm.453-2.254a.634.634,0,0,1-.131.021l-.008-.016c.074-.026.153-.054.235-.087l.041.007A.507.507,0,0,1,336.706,83.726Zm.29-.069c.046,0,.091-.007.134-.012a.823.823,0,0,1-.161.239A.749.749,0,0,0,337,83.657Zm.28-.03a1.475,1.475,0,0,1-.169.453,2.046,2.046,0,0,0,.06-.44Zm.056-1.96s0-.016-.008-.041l.022-.009C337.342,81.634,337.337,81.65,337.333,81.667Zm.631-2.307c0,.012,0,.023,0,.034l-.01-.025Zm-.111,1.857-.037-.026-.06-.047a.594.594,0,0,0,.051-.041l.032-.026c.037.019.077.039.117.057A1.184,1.184,0,0,0,337.852,81.217Zm.121.372a.439.439,0,0,1-.026-.183c.079-.02.14-.03.179-.036A.465.465,0,0,0,337.973,81.589Zm.169-.232a.729.729,0,0,1-.176-.07.658.658,0,0,1,.048-.128,1.168,1.168,0,0,0,.3.09A1.01,1.01,0,0,0,338.142,81.357Zm.636-.424a.6.6,0,0,1-.138.16,2.275,2.275,0,0,1-.287.138c-.057-.031-.165-.093-.282-.17l0-.006-.007,0c-.035-.023-.071-.048-.105-.074.036-.022.073-.043.112-.063a1.4,1.4,0,0,0,.547.174,1.44,1.44,0,0,1-.362-.27l.046-.024A2.306,2.306,0,0,0,338.778,80.933Z" transform="translate(-325.607 -74.709)"/><path class="a" d="M360.147,161.739l.22-.028a.73.73,0,0,0,.254-.068,4.281,4.281,0,0,1-.593-.156C360.068,161.571,360.107,161.655,360.147,161.739Z" transform="translate(-353.362 -145.297)"/></g><path class="a" d="M187.883,109.662a18.074,18.074,0,1,0,18.074,18.074A18.074,18.074,0,0,0,187.883,109.662Zm7.861,11-5.51,14.079-5.51.964,6.364-13.913-6.364,1.019v-3.83l11.02-1.047Z" transform="translate(-15920.672 -16346.102)"/></g></svg>