<svg xmlns="http://www.w3.org/2000/svg" width="28" height="28" viewBox="0 0 28 28"><defs><style>.a{fill:#ffbd00;}.b{fill:#fff;}</style></defs><g transform="translate(-1367 -563)"><circle class="a" cx="14" cy="14" r="14" transform="translate(1367 563)"/><g transform="translate(1373.5 569.501)"><path class="b" d="M0,.1,6.4,6.5H.1Z"/><path class="b" d="M7.7,15.2h0A7.532,7.532,0,0,1,.5,9.9H3.7a4.822,4.822,0,0,0,4.4,2.3,4.535,4.535,0,0,0,4.2-5A4.535,4.535,0,0,0,7.3,3,4.8,4.8,0,0,0,3.7,5.2L1.4,3.3A7.677,7.677,0,0,1,12,1.3a7.571,7.571,0,0,1,2,10.6A7.689,7.689,0,0,1,7.7,15.2Z"/></g></g></svg>