<svg xmlns="http://www.w3.org/2000/svg" width="108" height="94.305" viewBox="0 0 108 94.305">
  <g id="Online" transform="translate(-281.5 -2014.5)">
    <path id="Path_26524" data-name="Path 26524" d="M805.022,594.239h0a4.567,4.567,0,0,1-4.565,4.565H773.065a4.567,4.567,0,0,1-4.565-4.565V512.065a4.567,4.567,0,0,1,4.565-4.565h27.391a4.567,4.567,0,0,1,4.565,4.565v4.565" transform="translate(-485.5 1508.5)" fill="rgba(0,0,0,0)" stroke="#00adef" stroke-linecap="round" stroke-linejoin="round" stroke-width="3"/>
    <rect id="Rectangle_4285" data-name="Rectangle 4285" width="77.609" height="59.348" transform="translate(310.392 2034.261)" fill="rgba(0,0,0,0)" stroke="#00adef" stroke-linecap="round" stroke-linejoin="round" stroke-width="3"/>
    <rect id="Rectangle_4286" data-name="Rectangle 4286" width="22.826" height="13.696" transform="translate(337.782 2093.608)" fill="rgba(0,0,0,0)" stroke="#00adef" stroke-linecap="round" stroke-linejoin="round" stroke-width="3"/>
    <line id="Line_1076" data-name="Line 1076" x2="41.087" transform="translate(328.652 2107.305)" fill="none" stroke="#00adef" stroke-linecap="round" stroke-linejoin="round" stroke-width="3"/>
    <path id="Path_26526" data-name="Path 26526" d="M-12543.174-14054.729h-9.542v15.981" transform="translate(12849 16084.229)" fill="none" stroke="#ff7e19" stroke-linecap="round" stroke-linejoin="round" stroke-width="3"/>
    <path id="Path_26527" data-name="Path 26527" d="M-12543.174-14054.729h-9.542v15.981" transform="translate(-12176.891 -11972.246) rotate(180)" fill="none" stroke="#ff7e19" stroke-linecap="round" stroke-linejoin="round" stroke-width="3"/>
  </g>
</svg>
