<svg xmlns="http://www.w3.org/2000/svg" width="42.679" height="45" viewBox="0 0 42.679 45"><g transform="translate(-297.25 -74.44)"><path d="M326.847,180.528a2.122,2.122,0,0,1,.93.191,1.976,1.976,0,0,1,.667.513V178.3h.78v6.844h-.784v-.6a2.011,2.011,0,0,1-.652.513,2.122,2.122,0,0,1-.93.19,2.257,2.257,0,0,1-.89-.176,2.172,2.172,0,0,1-.733-.491,2.279,2.279,0,0,1-.48-.733,2.656,2.656,0,0,1,0-1.89,2.277,2.277,0,0,1,.48-.733,2.2,2.2,0,0,1,.733-.491A2.258,2.258,0,0,1,326.847,180.528Zm.092.733a1.577,1.577,0,0,0-.641.125,1.463,1.463,0,0,0-.495.348,1.537,1.537,0,0,0-.315.517,1.8,1.8,0,0,0-.11.634,1.771,1.771,0,0,0,.114.634,1.576,1.576,0,0,0,.315.516,1.483,1.483,0,0,0,.495.366,1.539,1.539,0,0,0,.638.128,1.565,1.565,0,0,0,.63-.125,1.467,1.467,0,0,0,.491-.344,1.572,1.572,0,0,0,.319-.517,1.787,1.787,0,0,0,.114-.645,1.766,1.766,0,0,0-.114-.641,1.59,1.59,0,0,0-.319-.513,1.467,1.467,0,0,0-.491-.344,1.563,1.563,0,0,0-.634-.139Zm5.763-.733a2.1,2.1,0,0,1,.854.172,1.962,1.962,0,0,1,.67.48,2.258,2.258,0,0,1,.44.733,2.8,2.8,0,0,1,.165.949v.289h-3.576a1.792,1.792,0,0,0,.18.615,1.438,1.438,0,0,0,.341.44,1.347,1.347,0,0,0,.465.26,1.761,1.761,0,0,0,.553.084,1.984,1.984,0,0,0,.751-.143,2.292,2.292,0,0,0,.641-.4l.414.535a2.57,2.57,0,0,1-.432.33,2.352,2.352,0,0,1-.458.212,2.563,2.563,0,0,1-.476.114,3.664,3.664,0,0,1-.491.033,2.46,2.46,0,0,1-.927-.169,2.084,2.084,0,0,1-.733-.48,2.2,2.2,0,0,1-.473-.733,2.8,2.8,0,0,1,0-1.916,2.2,2.2,0,0,1,.469-.733,2.139,2.139,0,0,1,.74-.506,2.292,2.292,0,0,1,.879-.172Zm0,.689a1.444,1.444,0,0,0-.542.1,1.286,1.286,0,0,0-.421.271,1.464,1.464,0,0,0-.3.414,1.8,1.8,0,0,0-.161.531h2.737a1.867,1.867,0,0,0-.15-.542,1.406,1.406,0,0,0-.286-.414,1.22,1.22,0,0,0-.4-.264,1.347,1.347,0,0,0-.495-.1Zm5.711-.689a2.241,2.241,0,0,1,.887.176,2.2,2.2,0,0,1,.733.491,2.317,2.317,0,0,1,.48.733,2.62,2.62,0,0,1,0,1.89,2.317,2.317,0,0,1-.48.733,2.2,2.2,0,0,1-.733.491,2.24,2.24,0,0,1-.887.176,2.13,2.13,0,0,1-.934-.191,1.961,1.961,0,0,1-.663-.509v.626h-.758V178.29h.777v2.931a1.962,1.962,0,0,1,.663-.509A2.135,2.135,0,0,1,338.413,180.528Zm-.092.733a1.562,1.562,0,0,0-.63.125,1.467,1.467,0,0,0-.491.344,1.587,1.587,0,0,0-.319.513,1.764,1.764,0,0,0-.114.641,1.785,1.785,0,0,0,.114.645,1.572,1.572,0,0,0,.319.517,1.466,1.466,0,0,0,.491.344,1.562,1.562,0,0,0,.63.125,1.533,1.533,0,0,0,.637-.128,1.5,1.5,0,0,0,.491-.366,1.548,1.548,0,0,0,.315-.517,1.817,1.817,0,0,0,.11-.634,1.78,1.78,0,0,0-.11-.634,1.58,1.58,0,0,0-.319-.517,1.47,1.47,0,0,0-.491-.348,1.55,1.55,0,0,0-.619-.11Zm3.964-2.788a.553.553,0,0,1,.557.549v.007a.531.531,0,0,1-.341.5.582.582,0,0,1-.216.04.561.561,0,0,1-.213-.04.518.518,0,0,1-.172-.114.558.558,0,0,1-.117-.172.538.538,0,0,1-.044-.213.547.547,0,0,1,.044-.22.578.578,0,0,1,.117-.176.535.535,0,0,1,.388-.161Zm.41,6.671h-.777v-4.521h.777Zm4.642-3.814h-1.9v2.2a1.326,1.326,0,0,0,.066.44.819.819,0,0,0,.179.3.706.706,0,0,0,.271.176.965.965,0,0,0,.341.059,1.438,1.438,0,0,0,.491-.084,1.937,1.937,0,0,0,.432-.22l.366.586a2.56,2.56,0,0,1-.6.319,2.116,2.116,0,0,1-.758.128,1.964,1.964,0,0,1-.656-.1,1.245,1.245,0,0,1-.495-.311,1.38,1.38,0,0,1-.308-.528,2.346,2.346,0,0,1-.106-.733v-2.22h-.967v-.711h.949v-1.418h.78v1.418h1.9Z" transform="translate(-17.319 -65.804)"/><path d="M308.8,156.053v-2.2a1.279,1.279,0,0,0-1.348-1.385,1.36,1.36,0,0,0-1.231.623,1.29,1.29,0,0,0-1.158-.623,1.2,1.2,0,0,0-1.055.513v-.429h-.722v3.506H304v-2.015a.843.843,0,0,1,.748-.927.873.873,0,0,1,.138,0c.506,0,.791.33.791.923v2.019h.711v-2.011a.846.846,0,0,1,.757-.927.862.862,0,0,1,.13,0c.52,0,.8.33.8.923v2.019Zm11.416-3.5H318.94v-1.062h-.714v1.062h-.733v.637h.733v1.66c0,.813.286,1.3,1.187,1.3a1.789,1.789,0,0,0,.952-.271l-.22-.623a1.4,1.4,0,0,1-.674.2c-.366,0-.535-.234-.535-.586v-1.682h1.275Zm6.506-.088a1.1,1.1,0,0,0-.953.513v-.425h-.7v3.506h.7v-1.978c0-.579.278-.952.776-.952a1.24,1.24,0,0,1,.476.088l.234-.663a1.631,1.631,0,0,0-.542-.1Zm-9.837.366a2.623,2.623,0,0,0-1.429-.366c-.887,0-1.429.418-1.429,1.1,0,.571.4.916,1.18,1.026l.366.051c.418.059.645.205.645.4,0,.271-.308.447-.828.447a1.833,1.833,0,0,1-1.165-.366l-.366.55a2.617,2.617,0,0,0,1.517.454c1.011,0,1.572-.469,1.572-1.136s-.429-.92-1.187-1.029l-.366-.051c-.33-.044-.623-.147-.623-.366s.278-.432.7-.432a2.263,2.263,0,0,1,1.1.3Zm10.624,1.465a1.748,1.748,0,0,0,1.659,1.832,1.675,1.675,0,0,0,.173,0,1.83,1.83,0,0,0,1.26-.418l-.366-.549a1.543,1.543,0,0,1-.916.315,1.194,1.194,0,0,1,0-2.378,1.543,1.543,0,0,1,.916.315l.366-.55a1.831,1.831,0,0,0-1.26-.418,1.748,1.748,0,0,0-1.832,1.659,1.667,1.667,0,0,0,0,.173Zm-4.931-1.832a1.693,1.693,0,0,0-1.733,1.832,1.725,1.725,0,0,0,1.615,1.83,1.61,1.61,0,0,0,.169,0,2.133,2.133,0,0,0,1.436-.491l-.366-.52a1.671,1.671,0,0,1-1.018.366,1.03,1.03,0,0,1-1.059-.9h2.62v-.293a1.655,1.655,0,0,0-1.652-1.832Zm0,.652a.894.894,0,0,1,.923.864V154h-1.88a.938.938,0,0,1,.967-.887Zm-9.492,1.183v-1.748h-.7v.425a1.389,1.389,0,0,0-1.136-.513,1.841,1.841,0,1,0,0,3.682,1.389,1.389,0,0,0,1.136-.513v.425h.7Zm-2.839,0a1.1,1.1,0,0,1,1.008-1.183c.03,0,.061,0,.092,0a1.194,1.194,0,0,1,0,2.378,1.1,1.1,0,0,1-1.1-1.1c0-.031,0-.061,0-.092Zm27.07-1.832a1.1,1.1,0,0,0-.953.513v-.429h-.7v3.506h.7v-1.978c0-.579.278-.952.776-.952a1.24,1.24,0,0,1,.476.088l.235-.659a1.631,1.631,0,0,0-.542-.1Zm5.649,3.085a.363.363,0,0,1,.139.026.35.35,0,0,1,.19.183.342.342,0,0,1,0,.271.35.35,0,0,1-.19.183.343.343,0,0,1-.139.029.366.366,0,0,1-.33-.212.345.345,0,0,1,0-.271.364.364,0,0,1,.077-.11.442.442,0,0,1,.253-.11Zm0,.619a.26.26,0,0,0,.106-.022.278.278,0,0,0,.084-.059.271.271,0,0,0,0-.366.265.265,0,0,0-.084-.059.261.261,0,0,0-.106-.022.271.271,0,0,0-.106.022.265.265,0,0,0-.088.059.271.271,0,0,0,0,.366.274.274,0,0,0,.088.059.269.269,0,0,0,.106.015Zm.022-.436a.147.147,0,0,1,.1.029.093.093,0,0,1,.033.077.088.088,0,0,1-.026.066.127.127,0,0,1-.077.033l.106.121h-.084l-.1-.121H342.9v.121h-.069v-.322Zm-.081.062v.088h.081a.074.074,0,0,0,.044,0,.038.038,0,0,0,0-.033.038.038,0,0,0,0-.033.082.082,0,0,0-.044,0Zm-8.291-1.491v-1.755h-.7v.425a1.389,1.389,0,0,0-1.136-.513,1.841,1.841,0,1,0,0,3.682,1.389,1.389,0,0,0,1.136-.513v.425h.7Zm-2.839,0a1.1,1.1,0,0,1,1.008-1.183c.03,0,.061,0,.092,0a1.194,1.194,0,0,1,0,2.378,1.1,1.1,0,0,1-1.1-1.1c0-.031,0-.061,0-.092Zm9.917,0V151.14h-.7v1.832a1.389,1.389,0,0,0-1.136-.513,1.841,1.841,0,1,0,0,3.682,1.389,1.389,0,0,0,1.136-.513v.425h.7Zm-2.839,0a1.1,1.1,0,0,1,1.008-1.183c.03,0,.061,0,.092,0a1.194,1.194,0,0,1-.015,2.363,1.1,1.1,0,0,1-1.1-1.1c0-.029,0-.059,0-.088Z" transform="translate(-3.825 -48.601)"/><rect width="11.54" height="20.739" transform="translate(312.818 77.261)" fill="#ff5f00"/><path d="M313.551,87.641a13.165,13.165,0,0,1,5.038-10.368,13.189,13.189,0,1,0,0,20.739A13.166,13.166,0,0,1,313.551,87.641Z" transform="translate(0 -0.009)" fill="#eb001b"/><path d="M409.88,131.873v-.425h.172v-.088h-.436v.088h.172v.425Zm.846,0v-.513h-.132l-.154.366-.154-.366h-.132v.513h.092v-.388l.143.333h.1l.143-.333v.388Z" transform="translate(-71.201 -36.067)" fill="#f79e1b"/><path d="M376.836,87.632A13.189,13.189,0,0,1,355.5,98a13.188,13.188,0,0,0,0-20.739,13.189,13.189,0,0,1,21.34,10.368Z" transform="translate(-36.908 0)" fill="#f79e1b"/></g></svg>